<svg width="16" height="16" viewBox="0 0 16 16" fill="none" xmlns="http://www.w3.org/2000/svg">
<path d="M10.5931 6.20097L10.5932 6.20103L10.5968 6.19716C10.696 6.09067 10.7501 5.94982 10.7475 5.80428C10.7449 5.65875 10.686 5.51989 10.583 5.41696C10.4801 5.31404 10.3413 5.25508 10.1957 5.25251C10.0502 5.24995 9.90933 5.30397 9.80284 5.4032L9.80278 5.40313L9.79903 5.40687L8 7.20591L6.20097 5.40687L6.20104 5.40681L6.19716 5.4032C6.09067 5.30397 5.94982 5.24995 5.80428 5.25251C5.65875 5.25508 5.51989 5.31404 5.41697 5.41696C5.31404 5.51989 5.25508 5.65875 5.25252 5.80428C5.24995 5.94982 5.30397 6.09067 5.4032 6.19716L5.40313 6.19722L5.40688 6.20097L7.20591 8L5.40688 9.79903L5.40681 9.79896L5.4032 9.80284C5.30397 9.90933 5.24995 10.0502 5.25252 10.1957C5.25508 10.3413 5.31404 10.4801 5.41697 10.583C5.51989 10.686 5.65875 10.7449 5.80428 10.7475C5.94982 10.75 6.09067 10.696 6.19716 10.5968L6.19723 10.5969L6.20097 10.5931L8 8.79409L9.79731 10.5914C9.84836 10.6456 9.90968 10.6892 9.97771 10.7195C10.0466 10.7502 10.121 10.7667 10.1964 10.768C10.2719 10.7694 10.3468 10.7555 10.4167 10.7272C10.4867 10.699 10.5502 10.6569 10.6036 10.6036C10.6569 10.5502 10.699 10.4867 10.7272 10.4167C10.7555 10.3468 10.7694 10.2719 10.768 10.1964C10.7667 10.121 10.7502 10.0466 10.7195 9.97771C10.6892 9.90967 10.6456 9.84834 10.5914 9.7973L8.79409 8L10.5931 6.20097ZM15.15 8V7.99982C15.1478 6.10425 14.3938 4.28696 13.0534 2.94659C11.713 1.60622 9.89574 0.852226 8.00018 0.85H8C6.58587 0.85 5.20349 1.26934 4.02767 2.05499C2.85186 2.84064 1.93543 3.95732 1.39426 5.26381C0.853098 6.5703 0.711504 8.00793 0.987388 9.39489C1.26327 10.7819 1.94424 12.0559 2.94419 13.0558C3.94413 14.0558 5.21814 14.7367 6.60511 15.0126C7.99207 15.2885 9.4297 15.1469 10.7362 14.6057C12.0427 14.0646 13.1594 13.1481 13.945 11.9723C14.7307 10.7965 15.15 9.41413 15.15 8ZM13.0108 4.65187C13.673 5.64287 14.0264 6.80797 14.0265 7.99983C14.0247 9.59765 13.3892 11.1295 12.2594 12.2593C11.1295 13.3892 9.59765 14.0247 7.99984 14.0265C6.80797 14.0264 5.64288 13.673 4.65187 13.0108C3.66083 12.3486 2.8884 11.4074 2.43227 10.3062C1.97614 9.20504 1.8568 7.99331 2.08933 6.82429C2.32186 5.65527 2.89583 4.58146 3.73864 3.73864C4.58146 2.89582 5.65527 2.32186 6.8243 2.08933C7.99332 1.85679 9.20504 1.97614 10.3062 2.43227C11.4074 2.8884 12.3486 3.66082 13.0108 4.65187Z" fill="#91BBF8" stroke="#91BBF8" stroke-width="0.3"/>
</svg>
