<svg width="50" height="50" viewBox="0 0 50 50" fill="none" xmlns="http://www.w3.org/2000/svg">
<path fill-rule="evenodd" clip-rule="evenodd" d="M35.8127 32.2462L49.2621 45.6959C49.7348 46.1689 50.0002 46.8104 50 47.4792C49.9998 48.148 49.7339 48.7893 49.2608 49.262C48.7878 49.7348 48.1463 50.0002 47.4775 50C46.8087 49.9998 46.1675 49.7339 45.6947 49.2608L32.2454 35.8111C28.2248 38.9252 23.169 40.3907 18.1063 39.9094C13.0437 39.4281 8.35455 37.0361 4.99283 33.2202C1.63112 29.4042 -0.150656 24.4509 0.00999035 19.3678C0.170636 14.2847 2.26163 9.45381 5.8576 5.85775C9.45357 2.26169 14.2844 0.170641 19.3673 0.0099906C24.4503 -0.150659 29.4035 1.63116 33.2193 4.99296C37.0352 8.35476 39.4271 13.044 39.9084 18.1068C40.3897 23.1696 38.9242 28.2255 35.8102 32.2462H35.8127ZM20.0009 34.9986C23.979 34.9986 27.7941 33.4183 30.607 30.6053C33.42 27.7923 35.0002 23.9771 35.0002 19.9989C35.0002 16.0208 33.42 12.2055 30.607 9.39256C27.7941 6.57957 23.979 4.99925 20.0009 4.99925C16.0229 4.99925 12.2077 6.57957 9.39482 9.39256C6.58191 12.2055 5.00163 16.0208 5.00163 19.9989C5.00163 23.9771 6.58191 27.7923 9.39482 30.6053C12.2077 33.4183 16.0229 34.9986 20.0009 34.9986Z" fill="#73BBFB"/>
</svg>
